<svg width="1216" height="324" viewBox="0 0 1216 324" fill="none" xmlns="http://www.w3.org/2000/svg">
<mask id="mask0_1194_116" style="mask-type:alpha" maskUnits="userSpaceOnUse" x="0" y="0" width="1216" height="324">
<rect width="1216" height="324" rx="12" fill="#5951FF"/>
</mask>
<g mask="url(#mask0_1194_116)">
<path d="M881.152 -112.665V-112.662C880.375 25.7007 756.874 137.948 606.385 137.948C455.058 137.948 331.618 25.7016 331.618 -112.665C331.618 -251.085 455.058 -363.272 606.385 -363.272C757.648 -363.272 881.152 -251.085 881.152 -112.665ZM152.169 -345.154L151.744 -345.417L152.169 -345.154C109.721 -276.439 85.5 -197.127 85.5 -112.665C85.5 -28.4315 109.72 50.8218 152.169 119.474L152.169 119.474C241.456 264.287 411.602 362.372 606.385 362.372C892.801 362.372 1126.5 149.094 1126.5 -112.665C1126.5 -375.124 892.802 -587.697 606.385 -587.697C411.601 -587.697 241.456 -489.908 152.169 -345.154Z" stroke="white" stroke-opacity="0.24"/>
</g>
</svg>
